# xmcd CD database file
#
# Track frame offsets:
#	150
#	14554
#	29148
#	47780
#	64970
#	76815
#	93353
#	107498
#	128681
#	144950
#	162581
#	175255
#	185952
#	201874
#	221455
#	233102
#	248451
#
# Disc length: 3535 seconds
#
# Revision: 0
# Processed by: cddbd v1.5.2PL0 Copyright (c) Steve Scherf et al.
# Submitted via: CDex 1.79
#
DISCID=ee0dcd11
DTITLE=Diverse artiesten - Dutch Country music 2014 CD 2
DYEAR=2014
DGENRE=Country
TTITLE0=Jacky - Get in trouble with you
TTITLE1=Rene Meijer and Friends - I should have never ever said it in the first place
TTITLE2=Change of Key - An old suitcase filled with yesteryears
TTITLE3=Eddy Gee - Queen of the waltz
TTITLE4=Texas Renegade - Ring of fire (live)
TTITLE5=Cash on Delivery - (When do I) Get to be me
TTITLE6=In my Tree - So fine
TTITLE7=Joanna and the Horseflies - Wetlands
TTITLE8=Matthijs Ros and the Love Freaks - Out of the picture
TTITLE9=Southern Stars Theatre Company - Who's cheatin' Who (live)
TTITLE10=Smokey and the Bandits - You are never nice to me
TTITLE11=Woodwind - Helplessly hoping
TTITLE12=Martin van de  Vrugt (feat. Jessica Kilroy) - Ready to be moved
TTITLE13=Raymond Maas - Whenever we're alone
TTITLE14=The Wieners - All I have to do is dream
TTITLE15=Colonel Hammond's Four - I love you
TTITLE16=Kathleen Willems Band - The boxer
EXTD=YEAR: 2014
EXTT0=
EXTT1=
EXTT2=
EXTT3=
EXTT4=
EXTT5=
EXTT6=
EXTT7=
EXTT8=
EXTT9=
EXTT10=
EXTT11=
EXTT12=
EXTT13=
EXTT14=
EXTT15=
EXTT16=
PLAYORDER=
